<svg width="32" height="32" viewBox="0 0 32 32" fill="none" xmlns="http://www.w3.org/2000/svg">
<g clip-path="url(#clip0_1001_2)">
<rect width="32" height="32" rx="4" fill="#1F2937"/>
<path d="M12.5371 17.8438C12.5371 17.6445 12.5059 17.4688 12.4434 17.3164C12.3848 17.1602 12.2793 17.0195 12.127 16.8945C11.9785 16.7695 11.7715 16.6504 11.5059 16.5371C11.2441 16.4238 10.9121 16.3086 10.5098 16.1914C10.0879 16.0664 9.70703 15.9277 9.36719 15.7754C9.02734 15.6191 8.73633 15.4414 8.49414 15.2422C8.25195 15.043 8.06641 14.8145 7.9375 14.5566C7.80859 14.2988 7.74414 14.0039 7.74414 13.6719C7.74414 13.3398 7.8125 13.0332 7.94922 12.752C8.08594 12.4707 8.28125 12.2266 8.53516 12.0195C8.79297 11.8086 9.09961 11.6445 9.45508 11.5273C9.81055 11.4102 10.207 11.3516 10.6445 11.3516C11.2852 11.3516 11.8281 11.4746 12.2734 11.7207C12.7227 11.9629 13.0645 12.2812 13.2988 12.6758C13.5332 13.0664 13.6504 13.4844 13.6504 13.9297H12.5254C12.5254 13.6094 12.457 13.3262 12.3203 13.0801C12.1836 12.8301 11.9766 12.6348 11.6992 12.4941C11.4219 12.3496 11.0703 12.2773 10.6445 12.2773C10.2422 12.2773 9.91016 12.3379 9.64844 12.459C9.38672 12.5801 9.19141 12.7441 9.0625 12.9512C8.9375 13.1582 8.875 13.3945 8.875 13.6602C8.875 13.8398 8.91211 14.0039 8.98633 14.1523C9.06445 14.2969 9.18359 14.4316 9.34375 14.5566C9.50781 14.6816 9.71484 14.7969 9.96484 14.9023C10.2188 15.0078 10.5215 15.1094 10.873 15.207C11.3574 15.3438 11.7754 15.4961 12.127 15.6641C12.4785 15.832 12.7676 16.0215 12.9941 16.2324C13.2246 16.4395 13.3945 16.6758 13.5039 16.9414C13.6172 17.2031 13.6738 17.5 13.6738 17.832C13.6738 18.1797 13.6035 18.4941 13.4629 18.7754C13.3223 19.0566 13.1211 19.2969 12.8594 19.4961C12.5977 19.6953 12.2832 19.8496 11.916 19.959C11.5527 20.0645 11.1465 20.1172 10.6973 20.1172C10.3027 20.1172 9.91406 20.0625 9.53125 19.9531C9.15234 19.8438 8.80664 19.6797 8.49414 19.4609C8.18555 19.2422 7.9375 18.9727 7.75 18.6523C7.56641 18.3281 7.47461 17.9531 7.47461 17.5273H8.59961C8.59961 17.8203 8.65625 18.0723 8.76953 18.2832C8.88281 18.4902 9.03711 18.6621 9.23242 18.7988C9.43164 18.9355 9.65625 19.0371 9.90625 19.1035C10.1602 19.166 10.4238 19.1973 10.6973 19.1973C11.0918 19.1973 11.4258 19.1426 11.6992 19.0332C11.9727 18.9238 12.1797 18.7676 12.3203 18.5645C12.4648 18.3613 12.5371 18.1211 12.5371 17.8438ZM15.4727 11.4688H16.5684L19.3633 18.4238L22.1523 11.4688H23.2539L19.7852 20H18.9297L15.4727 11.4688ZM15.1152 11.4688H16.082L16.2402 16.6719V20H15.1152V11.4688ZM22.6387 11.4688H23.6055V20H22.4805V16.6719L22.6387 11.4688Z" fill="white"/>
</g>
<defs>
<clipPath id="clip0_1001_2">
<rect width="32" height="32" fill="white"/>
</clipPath>
</defs>
</svg>
